<svg fill="none" xmlns="http://www.w3.org/2000/svg" viewBox="0 0 705 1433.08"> <path d="M560.199 85.4764C624.195 47.6996 705 93.8337 705 168.147L705 1196.74C705 1376.5 512.055 1490.26 354.761 1403.25L-5.27596e-05 1207L-2.51538e-05 575.453C-2.08389e-05 476.738 52.1637 385.371 137.172 335.19L560.199 85.4764Z" fill="url(#paint0_linear_1_158)"></path> <mask id="mask0_1_158" style="mask-type:alpha" maskUnits="userSpaceOnUse" x="0" y="0" width="705" height="1207"> <path d="M705 0L705 1207L-5.27596e-05 1207L-1.94389e-05 444.71C-1.86656e-05 427.019 9.34831 410.645 24.5829 401.652L705 0Z" fill="#F9F8FF"></path> </mask> <g mask="url(#mask0_1_158)"> <ellipse cx="311.839" cy="391.875" rx="311.839" ry="391.875" transform="matrix(0.439055 0.89846 -0.947572 0.319541 943.66 592.031)" fill="url(#paint1_linear_1_158)" fill-opacity="0.44" style="mix-blend-mode:multiply"></ellipse> <ellipse cx="267.865" cy="218.492" rx="267.865" ry="218.492" transform="matrix(0.993649 -0.112529 0.00197165 0.999998 -24.504 156.285)" fill="url(#paint2_linear_1_158)" fill-opacity="0.42" style="mix-blend-mode:multiply"></ellipse> </g> <defs> <linearGradient id="paint0_linear_1_158" x1="705" y1="254.189" x2="140.116" y2="1283.87" gradientUnits="userSpaceOnUse"> <stop stop-color="#684FFF"></stop> <stop offset="1" stop-color="#B871FE"></stop> </linearGradient> <linearGradient id="paint1_linear_1_158" x1="311.839" y1="0" x2="311.839" y2="783.75" gradientUnits="userSpaceOnUse"> <stop stop-color="#684FFF"></stop> <stop offset="1" stop-color="#FFF8F0" stop-opacity="0"></stop> </linearGradient> <linearGradient id="paint2_linear_1_158" x1="267.865" y1="0" x2="267.865" y2="436.983" gradientUnits="userSpaceOnUse"> <stop stop-color="#684FFF"></stop> <stop offset="1" stop-color="#FFF8F0" stop-opacity="0"></stop> </linearGradient> </defs> </svg>