<svg xmlns="http://www.w3.org/2000/svg" viewBox="0 0 500 500">
  <g id="freepik--Floor--inject-13">
    <path
      d="M461,473.74c0,.14-94,.26-210,.26s-210-.12-210-.26,94-.26,210-.26S461,473.59,461,473.74Z"
      style="fill:#263238"></path>
  </g>
  <g id="freepik--Plant--inject-13">
    <path
      d="M458.84,247C447,253.08,438,263.62,431.45,275.22s-10.71,24.34-14.87,37l-3.64,65.19c13.75-23.39,24.78-50.88,27.76-77.85l-9.14-.82c6.13-.93,11.28-5.38,14.56-10.65s5-11.35,6.6-17.33l-11.16,1.66A41.39,41.39,0,0,0,458.84,247Z"
      style="fill:#455a64"></path>
    <g style="opacity:0.30000000000000004">
      <path
        d="M458.84,247C447,253.08,438,263.62,431.45,275.22s-10.71,24.34-14.87,37l-3.64,65.19c13.75-23.39,24.78-50.88,27.76-77.85l-9.14-.82c6.13-.93,11.28-5.38,14.56-10.65s5-11.35,6.6-17.33l-11.16,1.66A41.39,41.39,0,0,0,458.84,247Z"></path>
    </g>
    <path
      d="M410.9,392.67S381.06,357,381.4,322.85h12.06s-13.1-8.61-12.06-13.43,1.38-23.08,1.38-23.08l11,2.75s-8.26-4.13-9.3-10.67,2.41-36.86,2.41-36.86,13.44,14.12,17.57,28.59,15,31.34,11.8,75.43S410.9,392.67,410.9,392.67Z"
      style="fill:#455a64"></path>
    <path
      d="M426,396s32.33-21.54,39.52-49l-9.69-2.64s12.41-4.05,12.63-8.16,3.94-18.85,3.94-18.85l-9.47-.2s7.56-1.51,9.82-6.55,6.12-30.16,6.12-30.16-13.89,8.42-20.38,19.14-18.9,21.93-26,58.07S426,396,426,396Z"
      style="fill:#455a64"></path>
    <path
      d="M395.07,272.7a2.58,2.58,0,0,1,.1.38c.07.27.15.63.26,1.1.22,1,.54,2.42.94,4.23s.9,4.1,1.42,6.73,1.15,5.61,1.75,8.93c1.28,6.62,2.62,14.54,4,23.35s2.69,18.53,3.88,28.75,2.08,20,2.78,28.89,1.16,16.91,1.43,23.65c.16,3.37.24,6.42.33,9.1s.14,5,.16,6.87,0,3.32,0,4.34v1.13a2.21,2.21,0,0,1,0,.38,2.28,2.28,0,0,1,0-.38c0-.28,0-.65-.05-1.13,0-1-.08-2.48-.15-4.34s-.12-4.19-.24-6.86-.22-5.73-.41-9.09c-.32-6.74-.85-14.75-1.54-23.63s-1.65-18.64-2.81-28.87-2.53-19.92-3.84-28.73-2.67-16.73-3.9-23.36c-.58-3.32-1.18-6.31-1.68-8.94s-.94-4.9-1.32-6.74-.65-3.26-.85-4.26l-.21-1.11A2.12,2.12,0,0,1,395.07,272.7Z"
      style="fill:#263238"></path>
    <path
      d="M406.76,414.54s-27.31-31-35.79-49.72l6.4-2.73c-4.64.76-9.39-1.23-13-4.26s-6.24-7-8.83-10.94l8.43-1.42a31.38,31.38,0,0,1-18.42-14.27c9.95,1.63,18.95,7.1,26.37,13.93,6,5.53,11.1,12,16,18.52a62.85,62.85,0,0,1,6.21,10.2C398.71,383.34,406.78,403.16,406.76,414.54Z"
      style="fill:#455a64"></path>
    <path
      d="M466,298.49a1.91,1.91,0,0,1-.13.31l-.42.9c-.4.82-.95,2-1.67,3.44-1.46,3-3.54,7.3-6.05,12.67s-5.42,11.8-8.53,19-6.38,15.17-9.65,23.6-6.18,16.55-8.74,24-4.72,14.13-6.47,19.8-3.13,10.26-4,13.44c-.46,1.57-.82,2.8-1.08,3.67-.12.39-.22.7-.29.94a1.17,1.17,0,0,1-.12.32,1.42,1.42,0,0,1,.06-.33c.07-.24.15-.56.25-1,.23-.88.56-2.11,1-3.69.86-3.21,2.18-7.82,3.89-13.5s3.85-12.41,6.37-19.84,5.45-15.54,8.7-24,6.58-16.41,9.7-23.61,6.07-13.61,8.64-19,4.68-9.65,6.2-12.6l1.76-3.39.46-.88C465.91,298.58,466,298.48,466,298.49Z"
      style="fill:#263238"></path>
    <path
      d="M409.08,427.82a2.43,2.43,0,0,1-.13-.57c-.07-.43-.15-1-.26-1.64s-.24-1.59-.42-2.6-.36-2.17-.64-3.43c-.49-2.54-1.19-5.53-2.08-8.83s-2.06-6.87-3.44-10.56-2.92-7.12-4.4-10.19-3-5.78-4.27-8c-.63-1.13-1.26-2.11-1.79-3s-1-1.62-1.4-2.23-.65-1-.89-1.41a2.5,2.5,0,0,1-.28-.51,3.21,3.21,0,0,1,.37.45l1,1.36c.42.59.93,1.32,1.48,2.19s1.21,1.84,1.86,3c1.35,2.21,2.85,4.91,4.38,8s3.05,6.53,4.46,10.23,2.51,7.31,3.41,10.61,1.54,6.34,2,8.89c.26,1.27.41,2.43.56,3.45s.27,1.9.34,2.62.12,1.22.17,1.66A2.32,2.32,0,0,1,409.08,427.82Z"
      style="fill:#263238"></path>
    <rect x="385.34" y="420.53" width="59.77" height="12.19" style="fill:#407BFF"></rect>
    <polygon points="391.04 432.73 397.5 473.74 433.62 473.74 439.65 432.73 391.04 432.73"
      style="fill:#407BFF"></polygon>
    <path
      d="M441.45,432.73c0,.14-11.31.26-25.25.26s-25.26-.12-25.26-.26,11.31-.26,25.26-.26S441.45,432.58,441.45,432.73Z"
      style="fill:#263238"></path>
  </g>
  <g id="freepik--Character--inject-13">
    <path
      d="M155,121.92c1-4.87,4.43-7.47,9-9.39a15.54,15.54,0,0,1,14.27,1.36c2.78,1.84,5,4.62,8.25,5.5,5.28,1.46,11.08-2.81,16.18-.82a7.07,7.07,0,0,1-2.45,13.65c3.46,1,4.82,5.75,3.05,8.88s-5.74,4.53-9.31,4.11-6.79-2.36-9.61-4.59-5.4-4.77-8.4-6.76-6.56-3.41-10.13-3c-4.83.58-8.76,4.51-10.63,9s-2,9.49-2,14.36.29,9.8-.84,14.54a1.81,1.81,0,0,1-.88,1.39c-.77.29-1.5-.5-1.94-1.2a71.49,71.49,0,0,1-9.9-26c-.9-5.34-1.1-10.44,1.56-15.15s9.9-8.55,13.75-5.94"
      style="fill:#263238"></path>
    <path
      d="M147.07,145.05l1,49.71c.19,9.28,4.85,18.88,19.51,17.91h0c12.66-1.8,13-10.68,12.93-21.69h0s13.87-1.59,14.59-15.36c.34-6.66-.06-20.42-.56-32.87a25.69,25.69,0,0,0-24.65-24.62l-1.33,0C154.21,118.35,146.41,130.7,147.07,145.05Z"
      style="fill:#ffbe9d"></path>
    <path d="M180.53,191a33.34,33.34,0,0,1-17.73-6s3.91,10.86,17.71,10.17Z" style="fill:#eb996e"></path>
    <path
      d="M189.68,156.59a2,2,0,0,1-2,1.91,1.87,1.87,0,0,1-1.95-1.85,2,2,0,0,1,2-1.91A1.88,1.88,0,0,1,189.68,156.59Z"
      style="fill:#263238"></path>
    <path
      d="M191.33,149.39c-.25.25-1.7-.92-3.82-1s-3.71.92-3.93.65c-.11-.12.16-.57.85-1a5.38,5.38,0,0,1,3.16-.84,5.22,5.22,0,0,1,3,1.11C191.25,148.81,191.45,149.28,191.33,149.39Z"
      style="fill:#263238"></path>
    <path
      d="M170.06,155.73a2,2,0,0,1-2,1.91,1.88,1.88,0,0,1-2-1.85,2,2,0,0,1,2-1.91A1.88,1.88,0,0,1,170.06,155.73Z"
      style="fill:#263238"></path>
    <path
      d="M170.5,149c-.25.25-1.7-.91-3.82-1s-3.71.92-3.93.65.16-.57.86-1a5.39,5.39,0,0,1,3.15-.84,5.22,5.22,0,0,1,3,1.11C170.42,148.37,170.62,148.84,170.5,149Z"
      style="fill:#263238"></path>
    <path
      d="M177.56,165a14.26,14.26,0,0,1,3.46-.48c.54,0,1.06-.12,1.17-.49a2.75,2.75,0,0,0-.3-1.61c-.46-1.33-.93-2.72-1.44-4.18-2-6-3.4-10.84-3.16-10.92s2.05,4.68,4,10.64c.47,1.46.93,2.86,1.36,4.2a3.11,3.11,0,0,1,.2,2.13,1.36,1.36,0,0,1-.92.76,4,4,0,0,1-.93.09A13.54,13.54,0,0,1,177.56,165Z"
      style="fill:#263238"></path>
    <path
      d="M171.38,140.68c-.23.56-2.34.21-4.83.41s-4.54.79-4.84.27c-.14-.26.23-.79,1.06-1.31a8.07,8.07,0,0,1,3.63-1.11,8.16,8.16,0,0,1,3.74.59C171,139.94,171.48,140.41,171.38,140.68Z"
      style="fill:#263238"></path>
    <path
      d="M190.8,143.23c-.4.47-1.83-.09-3.59-.18s-3.25.19-3.57-.33c-.14-.25.11-.72.78-1.15a4.9,4.9,0,0,1,2.94-.67,5,5,0,0,1,2.83,1.08C190.79,142.5,191,143,190.8,143.23Z"
      style="fill:#263238"></path>
    <path
      d="M147.79,155.3c-.23-.11-9.36-3.18-9.43,6.26s9.41,7.56,9.43,7.29S147.79,155.3,147.79,155.3Z"
      style="fill:#ffbe9d"></path>
    <path
      d="M144.93,165.25s-.16.12-.44.24a1.69,1.69,0,0,1-1.23,0c-1-.38-1.82-2-1.85-3.67a5.4,5.4,0,0,1,.48-2.35,1.91,1.91,0,0,1,1.24-1.25.84.84,0,0,1,1,.46c.12.27.06.45.11.47s.21-.16.13-.55A1,1,0,0,0,144,158a1.26,1.26,0,0,0-.91-.25,2.32,2.32,0,0,0-1.73,1.45,5.57,5.57,0,0,0-.59,2.63c.05,1.9,1,3.68,2.37,4.09a1.75,1.75,0,0,0,1.5-.24C144.91,165.48,145,165.27,144.93,165.25Z"
      style="fill:#eb996e"></path>
    <path
      d="M195.24,129.92a18,18,0,0,0-5.52-6.9A30.71,30.71,0,0,0,172.17,116a25,25,0,0,0-17.79,5.92,26.48,26.48,0,0,0-7.79,13,38.91,38.91,0,0,0-.7,15.28c.31,2.23.82,4.55,2.31,6.24.93,1.06,2.58,1.79,3.72,1a3.72,3.72,0,0,0,1.19-2.13c2.1-7.2,4.2-14.94,1.82-22.05a21.42,21.42,0,0,1,6.73-5.7,11.14,11.14,0,0,1,8.6-.83c4.15,1.46,6.57,5.65,9.81,8.62A19.91,19.91,0,0,0,197.59,140Z"
      style="fill:#263238"></path>
    <path
      d="M178.6,170.86a9.41,9.41,0,0,1-1,2.46,3.17,3.17,0,0,1-2.16,1.45,2.85,2.85,0,0,1-2.48-1.15,4.59,4.59,0,0,1-.85-2.68c0-.86.31-1.91,1.16-2.06a2,2,0,0,1,1.05.16l4.6,1.52"
      style="fill:#eb996e"></path>
    <path
      d="M177.05,174.67a6.38,6.38,0,0,1-2.41-.14,3.42,3.42,0,0,1-1.91-1.52,3.61,3.61,0,0,1-.25-2.93,3.17,3.17,0,0,1,.34-.69c.17-.2.13-.19.33-.18s.49.16.74.24l.75.25c1,.32,1.88.61,2.63.83a8.52,8.52,0,0,0,2.49.58,8.06,8.06,0,0,0-2.3-1.11c-.73-.3-1.6-.63-2.57-1l-.75-.27c-.27-.09-.48-.2-.84-.29a1,1,0,0,0-.66.07,1.23,1.23,0,0,0-.47.42,3.85,3.85,0,0,0-.45.88,4.22,4.22,0,0,0,.37,3.58,3.84,3.84,0,0,0,2.4,1.69,3.72,3.72,0,0,0,1.95-.05C176.88,174.88,177.07,174.71,177.05,174.67Z"
      style="fill:#263238"></path>
    <path
      d="M205.52,120.9a2.85,2.85,0,0,1,.1.63,6.6,6.6,0,0,1-.2,1.84,8.65,8.65,0,0,1-4.16,5.21c-2.53,1.49-6.24,1.71-9.87.62s-7.19-3.38-10.89-5.56-7.58-3.83-11.29-3.68a14.82,14.82,0,0,0-8.92,3.56,19.66,19.66,0,0,0-4.3,5c-.8,1.36-1.13,2.18-1.18,2.15a2.47,2.47,0,0,1,.2-.6,15.75,15.75,0,0,1,.77-1.67,18.92,18.92,0,0,1,4.23-5.24,15.08,15.08,0,0,1,9.19-3.79c3.87-.19,7.89,1.53,11.6,3.71s7.18,4.51,10.75,5.55,7.07.91,9.5-.46a8.55,8.55,0,0,0,4.14-4.9A9.38,9.38,0,0,0,205.52,120.9Z"
      style="fill:#455a64"></path>
    <path
      d="M140.74,140.53a6.68,6.68,0,0,1,.73-2.51,16,16,0,0,1,3.59-5.18,16.33,16.33,0,0,1,2.76-2.14,5.83,5.83,0,0,1,2.73-1,3.09,3.09,0,0,1,1.9.49c.39.27.51.51.48.53a3.61,3.61,0,0,0-2.35-.59c-1.5.16-3.36,1.5-5.09,3.12a18.67,18.67,0,0,0-3.63,4.93C141.13,139.61,140.84,140.56,140.74,140.53Z"
      style="fill:#455a64"></path>
    <path
      d="M142.07,148.89a7,7,0,0,1,.88-2.47,17.45,17.45,0,0,1,3.86-5,17.73,17.73,0,0,1,5.42-3.33,7.19,7.19,0,0,1,2.55-.62,25.18,25.18,0,0,1-2.39,1,21,21,0,0,0-5.17,3.39,20.69,20.69,0,0,0-3.89,4.79C142.53,148,142.16,148.93,142.07,148.89Z"
      style="fill:#455a64"></path>
    <polygon points="211.44 285.1 261.61 305.31 253.61 319.64 196.72 310.91 211.44 285.1"
      style="fill:#ffbe9d"></polygon>
    <path
      d="M211.54,226.71c.26,14.11-.2,48.11-.2,48.11l8,12.64-14.07,19-16.26,2.29-1.61,12.61s-28.49,12.75-51.28,5c-17.73-6-38.45,14.21-38.45,14.21s-1.9-3.3,1.18-31.82c2.93-27.19,8-72.06,8-72.06l16.39-41L148,191.4c10.31,17.52,30.92,17.62,32.58,7l16.37,6.81a23.27,23.27,0,0,1,14.64,21.53Z"
      style="fill:#407BFF"></path>
    <path
      d="M197.35,231c.14,0-1.59,16.21-3.86,36.16s-4.24,36.12-4.38,36.1,1.58-16.2,3.86-36.16S197.21,231,197.35,231Z"
      style="fill:#263238"></path>
    <path
      d="M189.23,267.55c.08.12-8,5.43-18,11.86S153.11,291,153,290.83s8-5.43,18-11.86S189.15,267.43,189.23,267.55Z"
      style="fill:#263238"></path>
    <polygon points="160.46 473.74 151 473.74 145.6 410.17 160.46 410.17 160.46 473.74"
      style="fill:#263238"></polygon>
    <polygon points="86.81 473.74 77.36 473.74 71.96 410.17 86.81 410.17 86.81 473.74"
      style="fill:#263238"></polygon>
    <polygon points="264.94 473.74 255.49 473.74 250.09 410.17 264.94 410.17 264.94 473.74"
      style="fill:#263238"></polygon>
    <path
      d="M112.73,353.52l9-137.82h-85a10.35,10.35,0,0,0-10.17,12.23L60.77,412.54c10.88-.15,209.15,0,209.15,0v-59Z"
      style="fill:#455a64"></path>
    <path
      d="M238.81,392.23c0,.15-18.84.26-42.07.26s-42.07-.11-42.07-.26,18.83-.26,42.07-.26S238.81,392.09,238.81,392.23Z"
      style="fill:#263238"></path>
    <path d="M314.07,424.3l6.11,29.18s31.72,3.58,33.37,8.86L297.4,476.23,286,431.16Z"
      style="fill:#407BFF"></path>
    <path
      d="M302.22,455.34a2.37,2.37,0,0,0-.94,3,2.28,2.28,0,0,0,3,1,2.5,2.5,0,0,0,1-3.2,2.35,2.35,0,0,0-3.2-.65"
      style="fill:#e0e0e0"></path>
    <path d="M297.66,477.43l-1.11-4.37,54.08-13s2.77.47,2.92,2.3Z" style="fill:#e0e0e0"></path>
    <path
      d="M321,453c.06.27-1.28.74-2.41,1.95s-1.56,2.55-1.84,2.5-.26-1.73,1.13-3.18S321,452.7,321,453Z"
      style="fill:#263238"></path>
    <path
      d="M327.52,453.94c.12.25-.95,1-1.59,2.4s-.61,2.69-.89,2.74-.83-1.45,0-3.16S327.44,453.68,327.52,453.94Z"
      style="fill:#263238"></path>
    <path
      d="M332.6,460.17c-.23.11-1-1.16-.62-2.84s1.47-2.59,1.64-2.39-.42,1.2-.67,2.58S332.87,460.07,332.6,460.17Z"
      style="fill:#263238"></path>
    <path
      d="M318.89,446.47c-.05.28-1.4.21-2.93.7s-2.61,1.28-2.81,1.08.72-1.47,2.52-2S319,446.22,318.89,446.47Z"
      style="fill:#263238"></path>
    <g style="opacity:0.30000000000000004">
      <path d="M314.07,424.3l6.11,29.18s31.72,3.58,33.37,8.86l-55.89,15.09L286,431.16Z"></path>
    </g>
    <path
      d="M284.23,336.32l35.55,103.19-30.7,11.35L232.52,337.75l-94-14.7L195,307.87l80.44,20.33A12.58,12.58,0,0,1,284.23,336.32Z"
      style="fill:#263238"></path>
    <path d="M313.09,412.84l20.3,22.29S362.86,422,367,425.74L325.2,466.65l-33.05-33.44Z"
      style="fill:#407BFF"></path>
    <path
      d="M318.68,446a2.39,2.39,0,0,0,.73,3.1,2.29,2.29,0,0,0,3.08-.69,2.52,2.52,0,0,0-.78-3.28c-1.06-.52-2.78-.05-3.13,1.07"
      style="fill:#e0e0e0"></path>
    <path d="M326,467.56l-3.2-3.24,40.46-39.09s2.65-1,3.73.51Z" style="fill:#e0e0e0"></path>
    <path
      d="M333.85,434.25c.2.22-.73,1.31-1.09,2.95s-.06,3-.33,3.12-1.12-1.37-.64-3.35S333.72,434,333.85,434.25Z"
      style="fill:#263238"></path>
    <path
      d="M340,431.78c.24.15-.31,1.36-.16,2.9s.85,2.66.64,2.85-1.48-.84-1.63-2.76S339.82,431.59,340,431.78Z"
      style="fill:#263238"></path>
    <path
      d="M347.64,434.59c-.14.22-1.42-.52-2-2.15s0-3,.2-2.92.25,1.26.73,2.59S347.83,434.37,347.64,434.59Z"
      style="fill:#263238"></path>
    <path
      d="M328.66,429.69c.1.27-1.11.9-2.19,2.11s-1.62,2.45-1.9,2.38-.12-1.65,1.17-3.05S328.61,429.43,328.66,429.69Z"
      style="fill:#263238"></path>
    <path
      d="M128.43,366.52l81.94-.34,90.94,84.68,28.27-26.33s-77.22-87.14-86.14-96.13-94.88-15-94.88-15L96.88,335.87l1.18,5.86A30.82,30.82,0,0,0,128.43,366.52Z"
      style="fill:#263238"></path>
    <path
      d="M208.46,355.41a25,25,0,0,1,.88,5,24.39,24.39,0,0,1,.36,5.06,25.67,25.67,0,0,1-.88-5A25.22,25.22,0,0,1,208.46,355.41Z"
      style="fill:#455a64"></path>
    <path
      d="M320.14,414a10,10,0,0,1-1,1.19c-.68.74-1.68,1.8-2.93,3.09-2.5,2.59-6,6.11-10,9.9s-7.65,7.13-10.36,9.51c-1.35,1.19-2.45,2.14-3.23,2.78a9.35,9.35,0,0,1-1.23,1,8.33,8.33,0,0,1,1.1-1.11c.8-.75,1.85-1.73,3.12-2.9,2.64-2.45,6.27-5.83,10.24-9.61s7.52-7.27,10.08-9.79l3.05-3A8.06,8.06,0,0,1,320.14,414Z"
      style="fill:#455a64"></path>
    <path
      d="M271.22,422.84s.19.15.54.47l1.56,1.42,6,5.52,22.12,20.48h-.25l28.23-26.37,0,.33c-11.91-13.9-26.18-29.11-41.13-45.29-6.61-7.14-13-14.13-19.22-20.93s-12-13.42-17.41-19.94a53.89,53.89,0,0,0-8.49-8.81,22.45,22.45,0,0,0-5-2.93,31.63,31.63,0,0,0-5.42-1.67c-3.65-.78-7.25-1.24-10.69-1.8l-9.89-1.54-29.84-4.67-8.11-1.3-2.1-.35c-.48-.08-.72-.14-.72-.14s.25,0,.72.09l2.12.3,8.12,1.2,29.87,4.51,9.9,1.5c3.43.55,7,1,10.71,1.78a31.89,31.89,0,0,1,5.5,1.68,22.39,22.39,0,0,1,5.15,3,53.93,53.93,0,0,1,8.58,8.87c5.37,6.49,11.26,13.1,17.42,19.9S282,371.9,288.65,379.05c15,16.18,29.21,31.4,41.11,45.33l.15.17-.17.16c-10.64,9.88-20.26,18.81-28.3,26.29l-.13.11-.12-.11-22-20.61-5.93-5.58c-.66-.64-1.17-1.12-1.53-1.46S271.22,422.84,271.22,422.84Z"
      style="fill:#455a64"></path>
    <path
      d="M199.3,301l-24.72,8.33-45.51-18.51-24.3,22.59,64.92,11.65a14.16,14.16,0,0,0,6.56-.47l19.14-6s6.25,7.07,7.56,7.17,3.94-.07,2.68-2.41a61,61,0,0,0-4.47-6.39s8.79,7.25,9.79,6.28.6-3.22-1-5.05-6.73-7.76-6.73-7.76,10.83,9,11.86,7.61,1.54-3.51-2.8-7.67c-2.85-2.73-7.23-6.63-9.54-8.66A3.53,3.53,0,0,0,199.3,301Z"
      style="fill:#ffbe9d"></path>
    <path
      d="M173.91,309.56a17.53,17.53,0,0,1-2.36,2.92A17.63,17.63,0,0,1,169,315.2a11,11,0,0,1,2.19-3.06A11.37,11.37,0,0,1,173.91,309.56Z"
      style="fill:#eb996e"></path>
    <path
      d="M210.37,318.66a9.76,9.76,0,0,1-2.08-2.13c-1.2-1.4-2.78-3.39-4.56-5.54s-3.35-4.4-5.33-4a4.22,4.22,0,0,0-2,.6,6.64,6.64,0,0,1-.66.44s.13-.28.55-.61a4.1,4.1,0,0,1,2.07-.8,4.48,4.48,0,0,1,1.56.13,2.5,2.5,0,0,1,.83.39c.22.19.48.38.69.6a34,34,0,0,1,2.68,2.94c1.79,2.16,3.33,4.18,4.44,5.64L209.9,318C210.21,318.42,210.4,318.63,210.37,318.66Z"
      style="fill:#eb996e"></path>
    <path
      d="M192.83,312.32s.15-.25.58-.52a3.76,3.76,0,0,1,2-.52,3.88,3.88,0,0,1,1.47.29,3.51,3.51,0,0,1,1.31,1.12c.37.47.68,1,1,1.51s.76,1,1.15,1.54c3.22,4.23,5.61,7.85,5.4,8,0,0-.19-.21-.48-.6l-1.23-1.64L200,316.05c-.39-.54-.79-1-1.16-1.57s-.65-1.05-1-1.5a3.22,3.22,0,0,0-1.11-1,3.91,3.91,0,0,0-1.3-.31A4.53,4.53,0,0,0,192.83,312.32Z"
      style="fill:#eb996e"></path>
    <path
      d="M212.94,311a13,13,0,0,1-2-1.59c-1.19-1-2.82-2.48-4.59-4.1l-2.49-2.3a7.77,7.77,0,0,0-2.13-1.64,4.47,4.47,0,0,0-2.42-.35s.21-.17.66-.24a3.74,3.74,0,0,1,1.9.25,5.5,5.5,0,0,1,1.17.65c.39.29.75.62,1.14,1l2.52,2.27c1.77,1.63,3.36,3.12,4.49,4.22A11.55,11.55,0,0,1,212.94,311Z"
      style="fill:#eb996e"></path>
    <path
      d="M102.47,314s-9.24-10.38-8.66-24.22,4.55-53.9,6.32-64.89,10-26,23.2-29.26C133,193.28,135,222.41,135,222.41l-7.27,64.31,14.5,8.42-13.53,22.92Z"
      style="fill:#407BFF"></path>
    <path
      d="M133.7,219.2c-.1,0-.22-1.4-.83-3.59a25.39,25.39,0,0,0-1.37-3.74,29.08,29.08,0,0,0-2.46-4.2,27.79,27.79,0,0,0-3.22-3.64,24.71,24.71,0,0,0-3.12-2.48c-1.89-1.26-3.2-1.82-3.16-1.91a3.92,3.92,0,0,1,.94.33,8.27,8.27,0,0,1,1.07.51,14.09,14.09,0,0,1,1.35.76,22.17,22.17,0,0,1,3.24,2.43,25.19,25.19,0,0,1,3.32,3.7,25.49,25.49,0,0,1,2.47,4.3,22,22,0,0,1,1.3,3.84,14.09,14.09,0,0,1,.3,1.53,8.59,8.59,0,0,1,.15,1.16A3.32,3.32,0,0,1,133.7,219.2Z"
      style="fill:#263238"></path>
    <path
      d="M127.65,286.77a19.06,19.06,0,0,1-2.29,1.33,54.16,54.16,0,0,0-5.34,3.46,57.16,57.16,0,0,0-4.86,4.11,18.68,18.68,0,0,1-2,1.78,11.11,11.11,0,0,1,1.7-2.05,38.91,38.91,0,0,1,4.81-4.26,35.69,35.69,0,0,1,5.48-3.36A10.16,10.16,0,0,1,127.65,286.77Z"
      style="fill:#263238"></path>
    <path
      d="M223.65,272.11l-15.91,57.76H282l18.1-55a3.35,3.35,0,0,0-3.14-4.39l-70.06-.8A3.33,3.33,0,0,0,223.65,272.11Z"
      style="fill:#e0e0e0"></path>
    <path
      d="M228.46,269.67c.14,0-3.46,13.54-8.05,30.17s-8.41,30.07-8.55,30,3.47-13.55,8-30.17S228.32,269.63,228.46,269.67Z"
      style="fill:#263238"></path>
    <path d="M257.16,298.86a3.14,3.14,0,1,0,4.35-1.85A3.37,3.37,0,0,0,257.16,298.86Z"
      style="fill:#fff"></path>
    <path d="M207.74,329.87H158.05a4.25,4.25,0,0,1,4.25-4.25h47.29Z" style="fill:#e0e0e0"></path>
    <path
      d="M93.81,289.82a2.84,2.84,0,0,1,0,.47c0,.33,0,.79,0,1.37s.07,1.33.15,2.21.25,1.86.43,3a38,38,0,0,0,2.5,7.84,39,39,0,0,0,5.67,9.21l-.12-.06,26.18,4-.25.12L139,300.06l3-5.05.1.36-14.5-8.43-.13-.08v-.16c1.33-14.72,2.47-27.38,3.29-36.39.42-4.47.76-8,1-10.51.12-1.2.22-2.13.29-2.8,0-.3.06-.54.08-.72a1.74,1.74,0,0,1,0-.24.73.73,0,0,1,0,.24c0,.19,0,.43,0,.73-.05.66-.12,1.6-.2,2.81-.2,2.48-.49,6-.85,10.52-.77,9-1.85,21.68-3.1,36.4l-.13-.23,14.51,8.41.22.13-.13.22-3,5.06-10.56,17.86-.09.15-.16,0-26.17-4.08h-.08l0-.05a38.9,38.9,0,0,1-8.09-17.28,28.42,28.42,0,0,1-.38-3,21.11,21.11,0,0,1-.1-2.22c0-.58,0-1,0-1.37A2.84,2.84,0,0,1,93.81,289.82Z"
      style="fill:#263238"></path>
    <path d="M56.61,307.87s87.83,11.12,91,14.2c2.76,2.7,6.27,74,7.05,73.7l-82-3.11Z"
      style="fill:#455a64"></path>
    <path
      d="M129.07,412.33c-.15,0-2-20.57-4.09-46s-3.71-46-3.56-46,2,20.56,4.08,46S129.21,412.32,129.07,412.33Z"
      style="fill:#263238"></path>
    <path
      d="M39.33,215.7a1.63,1.63,0,0,1,.11.35l.24,1,.89,3.9c.77,3.43,1.85,8.33,3.2,14.38,2.65,12.18,6.3,29,10.34,47.49,1,4.63,2,9.16,2.92,13.54.47,2.19.94,4.33,1.39,6.44.11.52.22,1.05.34,1.57a8.33,8.33,0,0,0,.39,1.49,4.66,4.66,0,0,0,1.91,2.2,4.75,4.75,0,0,0,1.35.53c.46.11,1,.15,1.47.22l2.94.39,5.62.73,10.09,1.34,14.59,2,4,.56,1,.15a1.5,1.5,0,0,1,.35.08l-.36,0-1-.11-4-.46-14.62-1.81-10.09-1.27-5.63-.71-2.94-.37c-.5-.07-1-.11-1.51-.22a5.33,5.33,0,0,1-1.49-.59,5.06,5.06,0,0,1-2.12-2.42,9.54,9.54,0,0,1-.43-1.58c-.11-.52-.22-1-.34-1.57-.45-2.1-.92-4.25-1.4-6.43-.94-4.38-1.92-8.91-2.93-13.54-4-18.55-7.58-35.33-10.19-47.52-1.28-6.06-2.31-11-3-14.41-.35-1.68-.61-3-.8-3.93-.08-.43-.15-.77-.2-1S39.33,215.71,39.33,215.7Z"
      style="fill:#263238"></path>
    <path
      d="M148.89,327.74c.15,0,1.82,19,3.75,42.38s3.37,42.41,3.22,42.42-1.82-19-3.74-42.38S148.75,327.75,148.89,327.74Z"
      style="fill:#263238"></path>
  </g>
  <g id="freepik--Screen--inject-13">
    <rect x="250.4" y="55.04" width="203.68" height="178.35" style="fill:#fff"></rect>
    <rect x="250.89" y="136.87" width="203.18" height="96.52" style="fill:#ebebeb"></rect>
    <path
      d="M416.31,114.42c0,.14-27.88.26-62.25.26s-62.26-.12-62.26-.26,27.87-.26,62.26-.26S416.31,114.27,416.31,114.42Z"
      style="fill:#263238"></path>
    <path
      d="M452.9,74.34c0,.14-45.11.26-100.75.26s-100.76-.12-100.76-.26,45.1-.26,100.76-.26S452.9,74.19,452.9,74.34Z"
      style="fill:#263238"></path>
    <circle cx="261.42" cy="64.32" r="3.09" style="fill:#263238"></circle>
    <circle cx="271.76" cy="64.32" r="3.09" style="fill:#263238"></circle>
    <path d="M285.19,64.32a3.09,3.09,0,1,1-3.09-3.09A3.09,3.09,0,0,1,285.19,64.32Z"
      style="fill:#263238"></path>
    <circle cx="283.34" cy="113.87" r="8.13" transform="translate(2.47 233.7) rotate(-45)"
      style="fill:#407BFF"></circle>
    <path d="M284.71,109.79v7.87h-1.82v-6.41h-1.57v-1.46Z" style="fill:#fff"></path>
    <path
      d="M365.21,114.14a21.6,21.6,0,0,0-.47-2.87,11.77,11.77,0,0,0-4.31-6.39,11.64,11.64,0,0,0-11-1.63,11,11,0,0,0-2.93,1.58,10.84,10.84,0,0,0-2.45,2.47,11.52,11.52,0,0,0,0,13.68,10.84,10.84,0,0,0,2.45,2.47,11,11,0,0,0,2.93,1.58,11.7,11.7,0,0,0,15.31-8,21.63,21.63,0,0,0,.47-2.86,4.41,4.41,0,0,1,0,.76,5.37,5.37,0,0,1-.07.91,8.15,8.15,0,0,1-.22,1.24A11.95,11.95,0,0,1,355.6,126a12.06,12.06,0,0,1-6.33-.5,11.65,11.65,0,0,1-3.07-1.63,11.35,11.35,0,0,1-2.56-2.57,12,12,0,0,1,0-14.29,11.51,11.51,0,0,1,2.56-2.56,11.65,11.65,0,0,1,3.07-1.63,12.06,12.06,0,0,1,6.33-.5,11.95,11.95,0,0,1,9.34,8.93,8.25,8.25,0,0,1,.22,1.23,5.47,5.47,0,0,1,.07.92A4.41,4.41,0,0,1,365.21,114.14Z"
      style="fill:#407BFF"></path>
    <path
      d="M432.55,113.87c-.06,0,0-.73-.35-2a8.16,8.16,0,0,0-3-4.36,7.91,7.91,0,0,0-7.5-1.09,7.75,7.75,0,0,0-3.65,2.75,7.85,7.85,0,0,0,0,9.31,7.84,7.84,0,0,0,3.65,2.76,7.94,7.94,0,0,0,7.5-1.1,8.18,8.18,0,0,0,3-4.35c.33-1.24.29-2,.35-2a1.7,1.7,0,0,1,0,.52,6.64,6.64,0,0,1-.19,1.49,8.22,8.22,0,0,1-6.43,6.18,8.33,8.33,0,0,1-4.39-.33,8.25,8.25,0,0,1-3.9-2.91,8.31,8.31,0,0,1,0-9.91,8.25,8.25,0,0,1,3.9-2.91,8.33,8.33,0,0,1,4.39-.33,8.21,8.21,0,0,1,6.43,6.19,6.5,6.5,0,0,1,.19,1.48A1.8,1.8,0,0,1,432.55,113.87Z"
      style="fill:#263238"></path>
    <rect x="290.35" y="113.52" width="78.98" height="1.43" style="fill:#407BFF"></rect>
    <circle cx="353.38" cy="113.87" r="8.13" transform="translate(184.24 444.37) rotate(-80.76)"
      style="fill:#407BFF"></circle>
    <path
      d="M356.45,116.18v1.48H350.5v-1.18l3-2.87c.7-.66.82-1.07.82-1.45,0-.62-.42-1-1.26-1a1.94,1.94,0,0,0-1.63.79l-1.32-.85a3.64,3.64,0,0,1,3.12-1.47c1.76,0,2.93.9,2.93,2.33a3.16,3.16,0,0,1-1.32,2.49l-1.81,1.71Z"
      style="fill:#fff"></path>
    <path
      d="M427.51,115.25c0,1.33-1,2.55-3.26,2.55a5.43,5.43,0,0,1-3-.85l.71-1.39a3.84,3.84,0,0,0,2.25.71c.91,0,1.47-.37,1.47-1s-.43-1-1.47-1h-.83v-1.21l1.62-1.83h-3.35v-1.46h5.51V111l-1.78,2A2.25,2.25,0,0,1,427.51,115.25Z"
      style="fill:#263238"></path>
    <path
      d="M402.54,88.28c0,.14-19.78.26-44.17.26s-44.18-.12-44.18-.26S334,88,358.37,88,402.54,88.13,402.54,88.28Z"
      style="fill:#263238"></path>
    <polygon points="347.95 138.04 354.06 129.75 360.16 138.04 347.95 138.04" style="fill:#ebebeb"></polygon>
    <path
      d="M454.07,233.39c0-1.85-.09-71-.22-178.35l.22.22-203.66,0h0l.26-.26c0,64.8,0,125.83,0,178.35l-.23-.23,203.67.23-203.67.23h-.23v-.23c0-52.52,0-113.55,0-178.35v-.26h.27l203.66,0h.22V55C454.16,162.35,454.07,231.54,454.07,233.39Z"
      style="fill:#263238"></path>
    <path
      d="M301.16,157.72c0,.14-6.22.26-13.88.26s-13.88-.12-13.88-.26,6.21-.27,13.88-.27S301.16,157.57,301.16,157.72Z"
      style="fill:#407BFF"></path>
    <path
      d="M329.66,180.12H277.2a7.11,7.11,0,0,1-7.11-7.11h0a7.11,7.11,0,0,1,7.11-7.11h52.46a7.11,7.11,0,0,1,7.12,7.11h0A7.11,7.11,0,0,1,329.66,180.12Z"
      style="fill:#fafafa"></path>
    <path
      d="M398.24,157.72c0,.14-5.89.26-13.15.26s-13.15-.12-13.15-.26,5.88-.27,13.15-.27S398.24,157.57,398.24,157.72Z"
      style="fill:#407BFF"></path>
    <path
      d="M300.43,196.49c0,.14-5.89.26-13.15.26s-13.15-.12-13.15-.26,5.88-.26,13.15-.26S300.43,196.34,300.43,196.49Z"
      style="fill:#407BFF"></path>
    <path
      d="M424.94,180.12H372.47a7.11,7.11,0,0,1-7.11-7.11h0a7.11,7.11,0,0,1,7.11-7.11h52.47a7.11,7.11,0,0,1,7.11,7.11h0A7.11,7.11,0,0,1,424.94,180.12Z"
      style="fill:#fafafa"></path>
    <path
      d="M426.88,219.48H277.59a7.11,7.11,0,0,1-7.12-7.11h0a7.11,7.11,0,0,1,7.12-7.11H426.88a7.11,7.11,0,0,1,7.12,7.11h0A7.11,7.11,0,0,1,426.88,219.48Z"
      style="fill:#fafafa"></path>
    <circle cx="452.9" cy="57.08" r="14.78" transform="translate(92.29 336.97) rotate(-45)"
      style="fill:#407BFF"></circle>
    <rect x="451.78" y="49.97" width="2.96" height="13.28"
      transform="translate(172.77 -303.91) rotate(45)" style="fill:#fff"></rect>
    <rect x="451.78" y="49.97" width="2.96" height="13.28"
      transform="translate(92.72 337.08) rotate(-45)" style="fill:#fff"></rect>
  </g>
</svg>