<svg xmlns="http://www.w3.org/2000/svg" xmlns:xlink="http://www.w3.org/1999/xlink" version="1.1"
	x="0px" y="0px" style="enable-background:new 0 0 500 500;" xml:space="preserve"
	viewBox="27.5 68.32 452.07 328.56"><g id="BACKGROUND">	<path style="fill:#F1EEFD;" d="M57.185,392.617c0,0-32.696-76.966,8.655-135.131s16.131-109.727,88.735-161.06   c93.321-65.98,183.333-0.881,210.175,43.256c26.842,44.137,118.012,21.606,91.516,147.195   c-20.554,97.422-5.217,101.696-5.217,101.696L57.185,392.617z"></path>	<path style="fill:none;stroke:#C3C8FF;stroke-miterlimit:10;" d="M76.885,371.796c0,0-58.024-30.314-44.043-98.478   s70.921-84.339,94.338-79.335c43.89,9.379-27.817,37.052-44.946-10.446c-21.492-59.596,55.138-104.717,126.173-93.04   c45.653,7.505,67.69,29.359,108.272,43.091c40.437,13.683,57.397-4.643,41.286-15.264c-15.293-10.083-70.819,6.367-51.754,28.913   c26.105,30.871,89.017-16.959,137.776,36.3s6.43,120.216-31.055,125.8c-37.485,5.583-21.049-48.223,37.485-5.583   s-15.403,88.865-15.403,88.865"></path></g><g id="OBJECTS">	<g>		<path style="fill:#6876EB;" d="M475.311,396.881H31.766c-2.355,0-4.263-1.909-4.263-4.263l0,0c0-2.355,1.909-4.263,4.263-4.263    h447.808v4.263C479.574,394.972,477.665,396.881,475.311,396.881z"></path>		<path style="fill:#1C145E;" d="M191.16,396.881H31.766c-2.355,0-4.263-1.909-4.263-4.263v-4.263h167.921v4.263    C195.424,394.972,193.515,396.881,191.16,396.881z"></path>	</g>	<g>		<path style="fill:#1C145E;" d="M257.422,225.83c-18.994,36.5-40.336,51.37-40.336,51.37l18.431,29.426l32.185-33.446    L257.422,225.83z"></path>		<path style="fill:#1C145E;" d="M304.517,217.118l-47.095,8.712c-2.983,89.103-4.101,162.513-4.101,162.513h84.534    c0,0,2.453-136.443-11.146-166.213L304.517,217.118z"></path>					<line style="fill:none;stroke:#6876EB;stroke-width:4;stroke-miterlimit:10;" x1="299.049" y1="262.525" x2="321.993" y2="260.584"></line>		<path style="fill:none;stroke:#6876EB;stroke-miterlimit:10;" d="M288.517,243.375c0,0,14.563,99.377,1.892,139.587"></path>		<path style="fill:none;stroke:#6876EB;stroke-miterlimit:10;" d="M273.269,293.154c0,0,14.066,5.662,32.302,6.261    s6.89,10.302-20.144,8.462"></path>		<polygon style="fill:#E9A394;" points="276.894,213.495 288.517,244.375 304.517,217.118 293.972,199.885   "></polygon>		<polygon style="fill:#6876EB;" points="288.517,244.375 310.214,238.385 304.517,217.118   "></polygon>		<polygon style="fill:#6876EB;" points="279.477,220.357 267.702,233.509 288.517,244.375   "></polygon>		<path style="fill:#E9A394;" d="M235.517,306.626c0,0,6.877-14.341-7.889-32.812c-8.188-10.243-11.961-27.918-11.961-27.918    l-12.302,1.871l11.265,58.86H235.517z"></path>		<polygon style="fill:#E9A394;" points="200.85,227.441 195.813,232.019 202.547,237.963 181.461,237.604 181.009,244.839     203.364,247.767 215.667,245.896   "></polygon>		<polygon style="fill:#E9A394;" points="204.535,238.709 184.304,230.364 182.998,233.958 199.884,241.054   "></polygon>		<path style="fill:#1C145E;" d="M326.71,222.13c0,0,27.177,15.474,35.759,73.436l-31.53,7.608L326.71,222.13z"></path>		<g>			<polygon style="fill:#E9A394;" points="267.686,175.759 257.422,202.023 265.271,204.438 267.686,219.231 292.744,213.495      296.366,173.344    "></polygon>			<polygon style="fill:#E37A82;" points="284.409,182 265.247,182 267.337,176.338 284.409,175.282    "></polygon>			<path style="fill:#16005C;" d="M294.422,193.982c0,0-12.225-2.529-12.225-15.176c0,0-18.139,2.469-24.401-7.377     c-7.417-11.663,3.918-25.066,13.279-22.343c0,0-5.899,5.847,3.06,6.534c6.389,0.49,18.064-8.01,22.232,0.211     c0,0,32.158,7.345,8.151,37.308L294.422,193.982z"></path>			<path style="fill:none;stroke:#16005C;stroke-width:2;stroke-miterlimit:10;" d="M282.196,177.806     c0,0-24.247,4.685-29.318-12.703c-2.965-10.165,7.224-15.954,7.224-15.954"></path>			<g>				<circle style="fill:none;stroke:#16005C;stroke-width:0.5;stroke-miterlimit:10;" cx="271.936" cy="192.033" r="9.153"></circle>									<line style="fill:none;stroke:#16005C;stroke-width:0.5;stroke-miterlimit:10;" x1="280.597" y1="189.071" x2="293.633" y2="189.785"></line>			</g>			<path style="fill:#E9A394;" d="M310.214,196.287c0,5.669-7.595,10.264-13.264,10.264c-5.669,0-7.264-4.596-7.264-10.264     s4.596-10.264,10.264-10.264C305.618,186.023,310.214,190.619,310.214,196.287z"></path>		</g>		<polygon style="fill:#E9A394;" points="358.706,296.473 358.706,343.805 335.105,343.805 333.141,302.642   "></polygon>		<polygon style="fill:#1C145C;" points="255.584,285.773 256.575,252.793 241.287,300.631   "></polygon>		<polygon style="fill:#E37A82;" points="278.109,216.636 292.744,213.495 280.746,223.728   "></polygon>		<ellipse style="fill:#16005C;" cx="269.454" cy="192.633" rx="1.752" ry="3.654"></ellipse>		<path style="fill:#16005C;" d="M274.212,183.746c0-4.896-3.898-1.6-3.898-1.6L274.212,183.746z"></path>		<path style="fill:#FFFFFF;" d="M270.313,205.422l5.575-1.484C275.888,203.938,278.277,224.616,270.313,205.422z"></path>	</g>	<g>		<path style="fill:#5321D7;" d="M150.175,298.106c0,0,37.613-5.82,38.352,59.77c0.12,10.644,6.897,30.478,6.897,30.478h-34.087    L150.175,298.106z"></path>		<path style="fill:#6A3FDC;" d="M110.846,292.286l-22.733,5.366l6.936,90.702h88.452c0,0-2.967-71.763-36.323-93.292    L110.846,292.286z"></path>		<path style="fill:#6A3FDC;" d="M88.113,297.652c-23.431,5.344-17.946,23.328-13.422,60.258    c-11.695,9.498-0.475,13.773-0.475,13.773c-12.844,13.615,3.179,16.671,3.179,16.671h42.774    C120.168,388.354,111.56,292.304,88.113,297.652z"></path>		<line style="fill:none;stroke:#5321D7;stroke-miterlimit:10;" x1="117.625" y1="367.405" x2="107.36" y2="320.285"></line>		<path style="fill:#E9A394;" d="M77.394,388.354c0,0,7.222-16.581,30.047-24.917c18.925-6.911,46.608,11.03,64.329-6.018    l3.282,19.194l-54.884,11.741H77.394z"></path>		<g>			<g>				<polygon style="fill:#E9A394;" points="152.636,245.572 169.558,271.33 158.699,275.206 156.822,296.139 124.188,284.801       127.263,242.222     "></polygon>				<polygon style="fill:#E37A82;" points="127.527,272.629 110.846,292.286 132.238,318.502 141.886,287.882     "></polygon>				<polygon style="fill:#E37A82;" points="133.105,260.458 156.975,252.177 152.636,245.572 129.056,248.026     "></polygon>				<path style="fill:#16005C;" d="M131.044,269.481c0,0,7.227,14.469,2.199-13.422c0,0,6.858,0.77,12.229-8.281      c0,0-1.669,14.749,14.086,0c15.755-14.75-4.274-26.29-28.748-21.948c-21.213,3.764-42.441,15.749-11.415,56.382L131.044,269.481      z"></path>				<path style="fill:#E9A394;" d="M127.18,275.234c-1.628,2.183-4.425,4.164-7.333,4.588c-5.816,0.847-11.496-3.744-12.343-9.56      s2.091-8.836,7.906-9.683c3.269-0.476,7.054,0.493,9.893,2.466C126.161,264.114,127.18,275.234,127.18,275.234z"></path>									<ellipse transform="matrix(0.9651 -0.2619 0.2619 0.9651 -63.8319 48.2917)" style="fill:#16005C;" cx="149.232" cy="263.587" rx="1.634" ry="3.729"></ellipse>				<path style="fill:#16005C;" d="M143.586,258.539c0,0-0.848-4.783,3.592-2.48L143.586,258.539z"></path>			</g>			<polygon style="fill:#6A3FDC;" points="108.175,293.09 112.048,288.642 110.627,285.345 119.394,282.213 144.545,294.861      145.471,304.518 141.215,303.173 134.267,329.071    "></polygon>			<polyline style="fill:none;stroke:#5321D7;stroke-miterlimit:10;" points="130.886,299.414 145.471,304.518 144.545,294.861         "></polyline>			<path style="fill:#16005C;" d="M133.243,256.059c0,0,2.934,17.076,7.225,20.587c1.409,1.153,4.076-1.78,16.354-2.026     c7.507-0.15,7.501,26.054-2.461,25.303s-25.101-6.962-27.37-26.062C125.002,257.105,133.243,256.059,133.243,256.059z"></path>			<path style="fill:none;stroke:#C4C6C5;stroke-miterlimit:10;" d="M145.471,279.822c0,0,2.532,4.715,7.522,1.521"></path>		</g>	</g>	<g>		<path style="fill:#1C145E;" d="M202.402,377.57h-83.968v6.221c0,2.52,2.043,4.562,4.562,4.562h79.406    c2.52,0,4.562-2.043,4.562-4.562v-1.659C206.965,379.613,204.922,377.57,202.402,377.57z"></path>		<g>			<path style="fill:#1C145E;" d="M270.597,315.205h-97.676c-2.903,0-5.354,2.158-5.722,5.037l-7.869,61.613     c-0.44,3.448,2.246,6.499,5.722,6.499h97.676c2.903,0,5.354-2.158,5.722-5.037l7.869-61.613     C276.759,318.256,274.073,315.205,270.597,315.205z"></path>			<path style="fill:#6876EB;" d="M275.324,315.205h-97.676c-2.903,0-5.354,2.158-5.722,5.037l-7.869,61.613     c-0.44,3.448,2.246,6.499,5.722,6.499h97.676c2.903,0,5.354-2.158,5.722-5.037l7.869-61.613     C281.486,318.256,278.8,315.205,275.324,315.205z"></path>							<ellipse transform="matrix(0.7254 -0.6883 0.6883 0.7254 -181.0226 249.7714)" style="fill:#FFFFFF;" cx="222.552" cy="351.779" rx="10.153" ry="9.14"></ellipse>		</g>		<line style="fill:none;stroke:#1C145E;stroke-miterlimit:10;" x1="273.194" y1="387.832" x2="151.613" y2="387.832"></line>	</g>	<g>		<g>			<g>				<path style="fill:#16005C;" d="M326.926,305.378l40.361,0.765l-9.15-49.373l-21.461,2.43c0,0-9.667,14.268-2.033,25.362      C343.256,297.079,326.039,297.546,326.926,305.378z"></path>				<path style="fill:none;stroke:#7079F1;stroke-width:2;stroke-miterlimit:10;" d="M336.675,259.2c0,0-9.667,14.268-2.033,25.362      c8.614,12.518-8.603,12.984-7.716,20.816"></path>			</g>			<path style="fill:#7079F1;" d="M344.727,299.414c0,0-18.364,18.02-28.047,85.929h20.442L344.727,299.414z"></path>			<path style="fill:#C3C8FF;" d="M393.261,294.394l-7.992,90.949h-59.372l7.391-34.736c0,0-22.604-11.793,11.439-51.193     l8.461-4.352l36.76-2.776L393.261,294.394z"></path>			<path style="fill:none;stroke:#7079F1;stroke-miterlimit:10;" d="M344.727,340.118c0,0-3.559,6.096-0.137,10.99l-5.039,34.235"></path>			<line style="fill:none;stroke:#7079F1;stroke-miterlimit:10;" x1="336.429" y1="350.764" x2="370.818" y2="351.779"></line>			<line style="fill:none;stroke:#7079F1;stroke-miterlimit:10;" x1="377.598" y1="367.884" x2="373.961" y2="324.139"></line>			<path style="fill:#C3C8FF;" d="M393.261,294.394c0,0,3.279,4.125,7.075,13.69c5.382,13.563,11.801,38.066,11.38,77.258h-26.447     L393.261,294.394z"></path>			<path style="fill:#E9A394;" d="M411.716,388.343c0,0-13.214-30.22-46.451-21.572c-36.291,9.443-49.767,7.678-49.767,7.678     l-2.751,13.894H411.716z"></path>			<g>				<path style="fill:#7079F1;" d="M377.122,360.42l-11.793,2.637l26.787,25.286h25.249      C417.365,388.343,406.483,361.957,377.122,360.42z"></path>				<line style="fill:none;stroke:#C3C8FF;stroke-miterlimit:10;" x1="377.851" y1="368.263" x2="383.468" y2="366.547"></line>			</g>			<polygon style="fill:#E9A394;" points="315.498,374.449 298.254,370.884 285.893,388.343 312.747,388.343    "></polygon>			<polygon style="fill:#7079F1;" points="344.727,340.118 376.771,308.074 370.818,305.263 393.261,294.394 382.955,287.836      358.969,287.836 344.727,305.638 348.662,306.626 344.727,309.386    "></polygon>			<g>				<polygon style="fill:#E9A394;" points="367.13,298.729 377.598,291.495 366.298,266.228 348.783,277.229 353.717,298.188       344.727,340.118     "></polygon>				<polygon style="fill:#E37A82;" points="350.192,283.215 362.484,276.805 351.51,288.811     "></polygon>				<polygon style="fill:#E9A394;" points="327.737,246.635 322.37,276.381 330.421,276.381 339.461,288.811 362.484,276.805       346.382,240.928     "></polygon>				<polygon style="fill:#E37A82;" points="326.436,253.848 325.897,257.116 347.13,254.219 346.805,250.15     "></polygon>				<path style="fill:#16005C;" d="M386.424,244.375c-5.315-14.408-11.813-19.962-11.814-19.963      c-13.025-12.943-35.29,1.419-35.29,1.419c-28.532-6.906-16.95,28.517-16.95,28.517l23.236-2.85      c3.249,19.492,14.868,9.622,14.868,9.622l5.419,9.774c0,0-5.467,4.832,0.233,13.116c4.693,6.821-6.545,9.145-3.641,16.406      l44.913-9.309C407.398,261.555,396.03,270.415,386.424,244.375z"></path>				<path style="fill:none;stroke:#7079F1;stroke-width:2;stroke-miterlimit:10;" d="M320.549,254.577      c0,0-4.109-20.225,3.439-26.806c3.936-3.432,16.331-1.94,16.331-1.94"></path>				<path style="fill:none;stroke:#16005C;stroke-width:2;stroke-miterlimit:10;" d="M410.338,290.255      c0,0,3.587-13.45-15.956-28.701"></path>				<circle style="fill:#E9A394;" cx="361.142" cy="262.469" r="9.675"></circle>			</g>		</g>		<path style="fill:#FFFFFF;" d="M336.429,275.287l5.998-1.473C342.427,273.814,344.532,290.921,336.429,275.287z"></path>		<g>			<path style="fill:none;stroke:#1C145E;stroke-width:0.5;stroke-miterlimit:10;" d="M331.434,265.178c0,0,1.909-11.635,6.086,0"></path>			<path style="fill:#16005C;" d="M332.908,256.327c0,0,2.325-3.938,5.08,0H332.908z"></path>		</g>	</g>	<g>		<g>			<path style="fill:#C3C8FF;" d="M242.655,151.506c-3.48-9.678-14.421-14.524-24.011-10.389     c-8.253,3.559-12.628,12.922-10.068,21.538c1.431,4.817,4.663,8.543,8.71,10.717c3.736,2.006,6.942,4.869,9.292,8.398     l0.678,1.018l13.437-4.831l-0.125-1.211c-0.443-4.288,0.307-8.578,1.892-12.587C244.006,160.246,244.19,155.776,242.655,151.506z     "></path>			<path style="fill:#C3C8FF;" d="M242.655,151.506c-3.48-9.678-14.421-14.524-24.011-10.389     c-8.253,3.559-12.628,12.922-10.068,21.538c1.431,4.817,4.663,8.543,8.71,10.717c3.736,2.006,6.942,4.869,9.292,8.398     l0.678,1.018l13.437-4.831l-0.125-1.211c-0.443-4.288,0.307-8.578,1.892-12.587C244.006,160.246,244.19,155.776,242.655,151.506z     "></path>			<path style="fill:none;stroke:#FFFFFF;stroke-miterlimit:10;" d="M230.33,178.825l-10.711-15.106c0,0,0.195-3.059,3.557-2.574     c3.362,0.485,5.369,5.791,2.97,4.935s-3.248-7.093,1.292-8.044c4.539-0.951,6.056,9.362,3.548,7.375     c-2.508-1.987-1.979-8.553,2.882-8.607l2.852,21.787"></path>			<path style="fill:#16005C;" d="M240.381,188.282l-6.31,2.269c-2.399,0.863-5.044-0.383-5.906-2.782l-1.334-3.71     c-0.863-2.399,0.383-5.044,2.782-5.906l6.31-2.269c2.399-0.863,5.043,0.383,5.906,2.782l1.334,3.71     C244.025,184.775,242.78,187.419,240.381,188.282z"></path>							<rect x="223.949" y="175.644" transform="matrix(0.941 -0.3383 0.3383 0.941 -47.2923 89.8375)" style="fill:#6876EB;" width="20.194" height="9.858"></rect>		</g>		<line style="fill:none;stroke:#C3C8FF;stroke-miterlimit:10;" x1="225.321" y1="135.059" x2="223.425" y2="124.19"></line>		<line style="fill:none;stroke:#C3C8FF;stroke-miterlimit:10;" x1="211.627" y1="141.533" x2="202.549" y2="132.666"></line>		<line style="fill:none;stroke:#C3C8FF;stroke-miterlimit:10;" x1="202.166" y1="157.641" x2="191.808" y2="158.382"></line>		<line style="fill:none;stroke:#C3C8FF;stroke-miterlimit:10;" x1="240.251" y1="141.015" x2="244.913" y2="132.37"></line>	</g>	<g>		<g>			<g>				<path style="fill:#1C145C;" d="M386.092,220.863h64.228c2.233,0,4.372-1.81,4.777-4.044l6.637-36.617      c0.405-2.233-1.078-4.044-3.311-4.044h-64.228c-2.233,0-4.372,1.81-4.777,4.044l-6.637,36.617      C382.377,219.052,383.859,220.863,386.092,220.863z"></path>				<g>											<ellipse transform="matrix(0.7383 -0.6744 0.6744 0.7383 -20.0522 345.3375)" style="fill:#FFFFFF;" cx="435.016" cy="198.51" rx="4.598" ry="3.837"></ellipse>											<ellipse transform="matrix(0.7383 -0.6744 0.6744 0.7383 -23.3905 336.7332)" style="fill:#FFFFFF;" cx="422.258" cy="198.51" rx="4.598" ry="3.837"></ellipse>											<ellipse transform="matrix(0.7383 -0.6744 0.6744 0.7383 -26.7288 328.129)" style="fill:#FFFFFF;" cx="409.5" cy="198.51" rx="4.598" ry="3.837"></ellipse>				</g>			</g>			<polygon style="fill:#1C145C;" points="420.659,218.455 398.342,231.718 402.342,217.409    "></polygon>		</g>		<g>			<g>				<path style="fill:#C3C8FF;" d="M179.181,215.435h-64.228c-2.233,0-4.372-1.81-4.777-4.044l-6.637-36.617      c-0.405-2.233,1.078-4.044,3.311-4.044h64.228c2.233,0,4.372,1.81,4.777,4.044l6.637,36.617      C182.897,213.624,181.415,215.435,179.181,215.435z"></path>				<g>											<ellipse transform="matrix(0.6744 -0.7383 0.7383 0.6744 -100.1515 159.0327)" style="fill:#FFFFFF;" cx="130.258" cy="193.082" rx="3.837" ry="4.598"></ellipse>											<ellipse transform="matrix(0.6744 -0.7383 0.7383 0.6744 -95.9982 168.4519)" style="fill:#FFFFFF;" cx="143.016" cy="193.082" rx="3.837" ry="4.598"></ellipse>											<ellipse transform="matrix(0.6744 -0.7383 0.7383 0.6744 -91.8449 177.8712)" style="fill:#FFFFFF;" cx="155.773" cy="193.082" rx="3.837" ry="4.598"></ellipse>				</g>			</g>			<polygon style="fill:#C3C8FF;" points="156.269,213.027 159.792,225.83 174.04,212.131    "></polygon>		</g>	</g></g></svg>